<?xml version="1.0" encoding="iso-8859-1"?>
<!-- Generator: Adobe Illustrator 19.0.0, SVG Export Plug-In . SVG Version: 6.00 Build 0)  -->
<svg version="1.1" id="Layer_1" xmlns="http://www.w3.org/2000/svg" xmlns:xlink="http://www.w3.org/1999/xlink" x="0px" y="0px"
	 viewBox="0 0 511.999 511.999" style="enable-background:new 0 0 511.999 511.999;" xml:space="preserve">
<path style="fill:#F0F0F0;" d="M264.533,409.596l-83.543,83.457c-13.321,13.295-34.893,13.295-48.214,0L18.513,378.79
	c-12.246-12.305-13.312-31.838-2.475-45.398c0.751-0.998,1.579-1.946,2.475-2.816l83.884-83.116l141.229,141.229L264.533,409.596z"
	/>
<path style="fill:#A60916;" d="M493.486,181.411L264.533,409.596L102.397,247.46l21.334-21.334L330.582,18.507
	c13.321-13.295,34.893-13.295,48.214,0l114.69,114.69c0.896,0.87,1.724,1.818,2.475,2.816
	C506.798,149.573,505.732,169.106,493.486,181.411z"/>
<path style="fill:#FFFFFF;" d="M243.626,388.689l-62.209,62.124c-13.321,13.295-34.893,13.295-48.214,0l-114.69-114.69
	c-0.853-0.853-1.707-1.792-2.475-2.731c0.751-0.998,1.579-1.946,2.475-2.816l83.884-83.116L243.626,388.689z"/>
<path style="fill:#C90006;" d="M495.961,136.013c-0.768,0.939-1.621,1.877-2.475,2.731L264.533,366.929L123.389,225.785
	L330.582,18.507c13.321-13.295,34.893-13.295,48.214,0l114.69,114.69C494.382,134.067,495.21,135.015,495.961,136.013z"/>
<g>
	<path style="fill:#969392;" d="M428.461,511.998H153.598c-4.71,0-8.533-3.823-8.533-8.533s3.823-8.533,8.533-8.533h274.863
		c4.71,0,8.533,3.823,8.533,8.533S433.172,511.998,428.461,511.998z"/>
	<path style="fill:#969392;" d="M384.002,477.864H206.505c-4.71,0-8.533-3.823-8.533-8.533c0-4.71,3.823-8.533,8.533-8.533h177.496
		c4.71,0,8.533,3.823,8.533,8.533C392.535,474.041,388.712,477.864,384.002,477.864z"/>
	<path style="fill:#969392;" d="M384.002,443.73H240.554c-4.71,0-8.533-3.823-8.533-8.533c0-4.71,3.823-8.533,8.533-8.533h143.448
		c4.71,0,8.533,3.823,8.533,8.533C392.535,439.907,388.712,443.73,384.002,443.73z"/>
</g>
<path d="M157.267,511.998c-11.298,0-22.127-4.48-30.123-12.459l-114.69-114.69c-16.598-16.649-16.598-43.598,0-60.246l83.543-83.457
	c3.328-3.311,8.704-3.311,12.032,0l162.989,162.819c3.311,3.328,3.311,8.704,0,12.032l-83.287,83.543
	C179.651,507.595,168.676,512.083,157.267,511.998z M102.397,259.151l-77.825,77.484c-9.984,9.993-9.984,26.189,0,36.182
	l114.69,114.605c10.121,9.668,26.061,9.668,36.182,0l77.399-77.825L102.397,259.151z"/>
<path d="M264.533,418.13c-2.27,0.017-4.446-0.879-6.059-2.475L95.997,253.178c-3.311-3.328-3.311-8.704,0-12.032l228.27-228.697
	c16.649-16.598,43.598-16.598,60.246,0l115.031,114.69c16.598,16.649,16.598,43.598,0,60.246L271.018,416.082
	C269.226,417.635,266.88,418.377,264.533,418.13z M114.088,247.46l150.445,150.531l222.894-222.638l0,0
	c9.984-9.993,9.984-26.189,0-36.182L372.737,24.566c-10.121-9.668-26.061-9.668-36.182,0L114.088,247.46z"/>
<path d="M460.803,162.125c-2.27,0.017-4.446-0.879-6.059-2.475L352.342,57.249c-3.064-3.576-2.645-8.969,0.93-12.032
	c3.192-2.739,7.911-2.739,11.102,0l102.402,102.402c3.302,3.362,3.243,8.764-0.119,12.066
	C465.087,161.221,462.988,162.091,460.803,162.125z"/>
<g>
</g>
<g>
</g>
<g>
</g>
<g>
</g>
<g>
</g>
<g>
</g>
<g>
</g>
<g>
</g>
<g>
</g>
<g>
</g>
<g>
</g>
<g>
</g>
<g>
</g>
<g>
</g>
<g>
</g>
</svg>
